<?xml version="1.0" encoding="UTF-8" standalone="no"?>
<!-- Created with Inkscape (http://www.inkscape.org/) -->
<svg
   xmlns:dc="http://purl.org/dc/elements/1.1/"
   xmlns:cc="http://creativecommons.org/ns#"
   xmlns:rdf="http://www.w3.org/1999/02/22-rdf-syntax-ns#"
   xmlns:svg="http://www.w3.org/2000/svg"
   xmlns="http://www.w3.org/2000/svg"
   xmlns:xlink="http://www.w3.org/1999/xlink"
   xmlns:sodipodi="http://sodipodi.sourceforge.net/DTD/sodipodi-0.dtd"
   xmlns:inkscape="http://www.inkscape.org/namespaces/inkscape"
   width="256"
   height="256"
   id="svg2183"
   sodipodi:version="0.32"
   inkscape:version="0.46"
   version="1.0"
   sodipodi:docbase="D:\Development\SVN\TortoiseSVN\src\Resources\svg\Overlays"
   sodipodi:docname="OutOfDateIcon.svg"
   inkscape:output_extension="org.inkscape.output.svg.inkscape"
   inkscape:export-filename="/home/danson/src/plugins/SVNPlugin/overlays/outofdate.png"
   inkscape:export-xdpi="5.6199999"
   inkscape:export-ydpi="5.6199999">
  <defs
     id="defs2185">
    <inkscape:perspective
       sodipodi:type="inkscape:persp3d"
       inkscape:vp_x="0 : 128 : 1"
       inkscape:vp_y="0 : 1000 : 0"
       inkscape:vp_z="256 : 128 : 1"
       inkscape:persp3d-origin="128 : 85.333333 : 1"
       id="perspective14" />
    <linearGradient
       id="linearGradient4154">
      <stop
         style="stop-color:#f6833d;stop-opacity:0.61176473;"
         offset="0"
         id="stop4156" />
      <stop
         style="stop-color:#b00400;stop-opacity:1;"
         offset="1"
         id="stop4158" />
    </linearGradient>
    <radialGradient
       inkscape:collect="always"
       xlink:href="#linearGradient4154"
       id="radialGradient4162"
       cx="47.119026"
       cy="208.49529"
       fx="47.119026"
       fy="208.49529"
       r="47.490459"
       gradientUnits="userSpaceOnUse" />
  </defs>
  <sodipodi:namedview
     id="base"
     pagecolor="#ffffff"
     bordercolor="#666666"
     borderopacity="1.0"
     inkscape:pageopacity="0.0"
     inkscape:pageshadow="2"
     inkscape:zoom="1.9445436"
     inkscape:cx="84.700639"
     inkscape:cy="99.210147"
     inkscape:current-layer="layer1"
     showgrid="true"
     inkscape:document-units="px"
     inkscape:grid-bbox="true"
     width="256px"
     height="256px"
     showguides="true"
     inkscape:guide-bbox="true"
     inkscape:window-width="1191"
     inkscape:window-height="755"
     inkscape:window-x="0"
     inkscape:window-y="0" />
  <metadata
     id="metadata2188">
    <rdf:RDF>
      <cc:Work
         rdf:about="">
        <dc:format>image/svg+xml</dc:format>
        <dc:type
           rdf:resource="http://purl.org/dc/dcmitype/StillImage" />
      </cc:Work>
    </rdf:RDF>
  </metadata>
  <g
     id="layer1"
     inkscape:label="Layer 1"
     inkscape:groupmode="layer">
    <path
       sodipodi:type="arc"
       style="fill:url(#radialGradient4162);fill-opacity:1;stroke:none;stroke-opacity:0.76394851"
       id="path3183"
       sodipodi:cx="47.119026"
       sodipodi:cy="208.49529"
       sodipodi:rx="46.990459"
       sodipodi:ry="46.990459"
       d="M 94.109486 208.49529 A 46.990459 46.990459 0 1 1  0.12856674,208.49529 A 46.990459 46.990459 0 1 1  94.109486 208.49529 z"
       transform="matrix(1.7024809,0,0,1.7046963,0.281369,-179.98661)" />
    <path
       style="fill:#ffffff;fill-opacity:1;fill-rule:evenodd;stroke:#c8c8c8;stroke-width:1.80496562px;stroke-linecap:butt;stroke-linejoin:miter;stroke-opacity:1"
       d="M 74.876099,114.24837 C 66.159408,144.87776 64.620625,176.89655 73.026032,210.30089 L 85.359815,209.95163 C 94.149732,176.90487 92.880627,148.03847 84.434782,113.89906 L 74.876099,114.24837 z "
       id="path3158"
       sodipodi:nodetypes="ccccc" />
    <path
       sodipodi:type="arc"
       style="opacity:1;fill:#ffffff;fill-opacity:1;stroke:#c8c8c8;stroke-opacity:1"
       id="path3160"
       sodipodi:cx="47.272728"
       sodipodi:cy="243.63637"
       sodipodi:rx="5.2727275"
       sodipodi:ry="4.909091"
       d="M 52.545455 243.63637 A 5.2727275 4.909091 0 1 1  42,243.63637 A 5.2727275 4.909091 0 1 1  52.545455 243.63637 z"
       transform="matrix(1.7021375,0,0,1.7046113,-4.1445146e-2,-177.49443)" />
    <path
       style="fill:#ffff00;fill-opacity:1;fill-rule:evenodd;stroke:#000000;stroke-width:0.51425952;stroke-linecap:round;stroke-linejoin:round;stroke-miterlimit:4;stroke-dasharray:none;stroke-dashoffset:0;stroke-opacity:1"
       d="M 89.265576,241.97671 C 90.280807,239.98673 90.480797,236.33928 89.710025,233.87116 C 89.545179,233.34332 90.340718,232.96543 92.622971,232.48747 C 104.06477,230.09129 112.99733,225.0937 121.8816,216.1178 C 129.84367,208.07358 134.13779,200.47475 137.14872,189.10119 C 138.6045,183.60213 138.97512,172.34109 137.90266,166.19282 C 134.03851,144.03966 118.16136,126.15608 96.88357,119.99003 C 94.504698,119.30065 91.233714,118.57113 89.614687,118.36884 C 86.772477,118.01372 86.653102,117.93659 86.151524,116.13082 C 85.865812,115.10219 85.630749,113.96374 85.629176,113.60093 C 85.62699,113.0949 84.282639,112.97512 79.857173,113.08667 L 74.088046,113.23207 L 73.39974,115.67234 C 72.836873,117.66788 72.459021,118.16357 71.326411,118.39226 C 58.637104,120.95442 49.541037,125.56451 40.971164,133.77694 C 35.907164,138.62973 32.553765,142.97088 29.693788,148.37607 C 19.249137,168.11589 21.021609,192.40166 34.203777,210.16999 C 39.943401,217.90646 49.160125,225.21834 57.873475,228.94781 C 61.998659,230.71347 68.974286,232.79741 70.759306,232.79741 C 71.565511,232.79741 71.580661,232.99671 70.937127,235.13501 C 70.194196,237.60352 70.395853,239.84606 71.570823,242.18264 C 72.261808,243.55677 72.241515,243.59675 70.854552,243.59325 C 68.82477,243.58813 61.872048,241.85581 57.342034,240.22652 C 41.431967,234.50422 27.643549,222.35755 19.939504,207.27741 C 14.342535,196.32176 12.417343,188.24366 12.417343,175.7146 C 12.417348,163.18555 14.342546,155.10746 19.939504,144.15179 C 26.843592,130.63751 37.599175,120.23708 51.42805,113.70303 C 61.294144,109.04137 69.675154,107.17485 80.740841,107.17485 C 92.500032,107.17485 101.68324,109.37022 112.04652,114.6589 C 130.71848,124.18772 143.67936,141.47077 148.19209,162.85811 C 149.61572,169.605 149.48798,182.5349 147.92833,189.55784 C 144.00026,207.2457 133.96707,222.41982 119.80681,232.08862 C 110.56741,238.3974 101.83207,241.81649 89.864612,243.80825 L 88.188938,244.08713 L 89.265576,241.97671 z"
       id="path2407" />
    <path
       style="fill:#ffff00;fill-opacity:1;fill-rule:evenodd;stroke:#000000;stroke-width:0.51425952;stroke-linecap:round;stroke-linejoin:round;stroke-miterlimit:4;stroke-dasharray:none;stroke-dashoffset:0;stroke-opacity:1"
       d="M 71.48417,251.50984 C 48.850566,248.19951 29.663853,236.33626 17.515995,218.14101 C 4.4888968,198.62882 1.1156116,173.81775 8.4616182,151.54441 C 10.240082,146.15205 15.327548,136.22038 18.849655,131.26505 C 22.888757,125.58234 30.607406,117.80641 36.143188,113.84316 C 44.560536,107.8169 55.494547,103.05134 66.084445,100.79336 C 69.47574,100.07026 72.761323,99.861327 80.740841,99.861327 C 92.233481,99.861327 95.74864,100.38794 105.16215,103.51995 C 123.79556,109.71956 139.70583,123.53758 148.61574,141.25922 C 159.75331,163.41162 159.71619,188.35554 148.51294,210.32389 C 140.72926,225.58691 129.17043,236.87047 113.65345,244.3533 C 102.55114,249.70721 95.592897,251.31894 82.540749,251.55988 C 77.308159,251.65646 72.332698,251.63395 71.48417,251.50985 L 71.48417,251.50984 z M 85.867334,245.66384 C 86.956906,244.99045 88.493107,244.36892 89.281123,244.28265 C 90.069148,244.19637 92.751155,243.66887 95.241159,243.11041 C 106.87607,240.50093 117.23812,235.28625 126.14955,227.55585 C 136.52386,218.55646 143.70533,206.69864 147.73553,191.91378 C 149.06474,187.03756 149.13704,186.18514 149.13118,175.45747 C 149.12532,164.70323 149.05595,163.90217 147.7289,159.2583 C 141.39914,137.10773 128.01591,121.24708 108.30296,112.53401 C 98.888066,108.37266 92.295542,107.07734 80.483711,107.06805 C 68.161164,107.05834 62.008306,108.41596 51.257162,113.51682 C 36.731414,120.40852 26.463452,130.43675 19.361698,144.66754 C 13.665266,156.08231 12.344329,161.92653 12.344329,175.7146 C 12.344329,186.72546 12.824117,190.2289 15.302252,197.3135 C 21.51228,215.06704 33.608012,229.05195 49.968772,237.39446 C 56.616692,240.7843 70.22138,244.79335 71.789028,243.82449 C 72.087484,243.64003 72.836909,243.96372 73.454386,244.54381 C 76.545764,247.44803 82.160727,247.95465 85.867345,245.66384 L 85.867334,245.66384 z"
       id="path2409" />
    <path
       style="fill:#ffff00;fill-opacity:1;fill-rule:evenodd;stroke:#000000;stroke-width:0.51425952;stroke-linecap:round;stroke-linejoin:round;stroke-miterlimit:4;stroke-dasharray:none;stroke-dashoffset:0;stroke-opacity:1"
       d="M 75.341116,255.07974 C 55.269502,253.64528 37.173312,245.21978 23.371441,230.88287 C 11.737009,218.79744 4.6974547,204.86465 1.7335561,188.05683 C 0.72517041,182.33843 0.86613922,167.36115 1.984705,161.37379 C 3.7075258,152.15196 7.5225958,142.14645 12.497527,133.80245 C 17.319424,125.71511 26.33591,116.09019 34.567343,110.24334 C 58.617485,93.160341 90.73045,90.944695 116.99613,104.55613 C 134.90293,113.8358 148.86048,129.78037 155.5603,148.61042 C 162.75587,168.83379 161.48791,191.41556 152.0892,210.42712 C 147.9183,218.86403 144.1406,224.21286 137.61891,230.91553 C 128.48795,240.29989 118.18413,246.86925 106.19669,250.94923 C 99.516918,253.22273 94.639598,254.23133 87.097258,254.89892 C 81.404174,255.40283 80.135007,255.42235 75.341116,255.07974 z M 94.111588,251.04681 C 106.24555,249.22494 120.90489,242.24048 131.02038,233.46157 C 140.83854,224.9407 149.21866,212.27483 153.40581,199.62767 C 162.21615,173.01644 155.61502,143.60701 136.28087,123.33249 C 125.50672,112.03433 114.11817,105.34047 98.353215,101.03975 C 94.468036,99.979859 92.987936,99.881728 80.740841,99.871973 C 67.596163,99.861513 67.283858,99.885909 62.269633,101.3152 C 53.132954,103.91957 45.458341,107.36473 37.988012,112.21532 C 32.767964,115.60477 23.835935,124.15177 19.472274,129.93292 C 15.266464,135.50493 8.9528388,148.14199 7.2183547,154.45978 C 2.4815826,171.71325 3.7941733,190.56236 10.84988,206.60993 C 20.765508,229.16215 41.081092,245.50417 65.827316,250.83422 C 71.308864,252.0149 86.884313,252.13195 94.111588,251.0468 L 94.111588,251.04681 z"
       id="path2411" />
    <path
       style="fill:#ffff00;fill-opacity:1;fill-rule:evenodd;stroke:#000000;stroke-width:0.51425952;stroke-linecap:round;stroke-linejoin:round;stroke-miterlimit:4;stroke-dasharray:none;stroke-dashoffset:0;stroke-opacity:1"
       d="M 71.916945,225.35119 C 55.83511,222.43299 41.876575,211.59284 34.979974,196.66605 C 31.654109,189.46762 30.853165,185.31121 30.893113,175.45747 C 30.922534,168.20045 31.114399,166.0424 32.022381,162.75605 C 35.97482,148.45052 46.541315,135.85363 59.52594,129.96755 C 63.039957,128.37461 70.122061,126.09781 70.472601,126.44835 C 70.696206,126.67196 68.362862,139.18581 68.053807,139.4205 C 67.960598,139.49128 66.862993,139.94721 65.614659,140.43368 C 62.192514,141.76729 56.771304,145.45212 53.672777,148.55065 C 35.440756,166.78267 40.158526,197.7416 62.97802,209.6136 C 68.97085,212.7314 73.982561,213.95684 80.740841,213.95684 C 97.627143,213.95683 111.78437,203.62414 117.28437,187.28544 C 119.07183,181.97549 119.54171,173.68013 118.36735,168.16625 C 115.58484,155.1017 106.86258,144.73659 94.640946,139.97093 L 90.511771,138.36082 L 89.395586,132.22664 C 88.781699,128.85284 88.349511,126.02236 88.435181,125.93669 C 88.745938,125.62594 95.318606,127.35345 98.774147,128.65411 C 110.411,133.03421 120.21294,142.00394 125.75511,153.34431 C 129.90306,161.83187 130.62401,165.14422 130.62401,175.7146 C 130.62401,183.56378 130.47369,185.23312 129.44804,188.77424 C 122.95047,211.2074 103.06607,226.29106 80.287783,226.06562 C 77.70853,226.0401 73.941667,225.7186 71.916955,225.3512 L 71.916945,225.35119 z"
       id="path2413" />
    <path
       style="fill:#ffff00;fill-opacity:1;fill-rule:evenodd;stroke:#000000;stroke-width:0.51425952;stroke-linecap:round;stroke-linejoin:round;stroke-miterlimit:4;stroke-dasharray:none;stroke-dashoffset:0;stroke-opacity:1"
       d="M 71.671335,232.55603 C 71.528654,232.41334 69.119425,231.71505 66.317518,231.00429 C 56.621279,228.54465 46.361987,222.43577 39.229208,214.87465 C 27.922504,202.88893 22.273538,186.45353 23.914838,170.31811 C 25.306239,156.63927 31.369456,144.01599 40.979835,134.78964 C 46.203035,129.77517 50.274396,126.94875 56.570753,123.96614 C 61.240342,121.75414 71.44523,118.67857 72.06355,119.29689 C 72.236655,119.47 72.054417,120.93869 71.658556,122.56063 L 70.938803,125.50963 L 64.783261,127.62999 C 48.929957,133.09089 38.40377,143.74585 32.267091,160.54395 C 31.097526,163.74545 30.927065,165.11814 30.726596,172.94984 C 30.405852,185.48042 31.219951,189.93429 35.320908,198.08489 C 42.007716,211.37484 53.74736,220.9471 68.055885,224.77632 C 78.403557,227.54553 89.610912,226.84851 99.597831,222.81462 C 106.21414,220.14219 110.40415,217.28018 116.22475,211.45758 C 122.20893,205.47134 125.33736,200.86523 127.98735,194.13902 C 130.73496,187.16507 131.01916,185.10473 130.73916,174.19052 C 130.44937,162.89482 130.09398,161.25864 126.24092,153.4814 C 119.31762,139.50696 108.06506,130.46892 92.354924,126.26413 C 88.324384,125.18538 88.176894,125.09143 87.70915,123.30512 C 86.44437,118.4749 86.445547,118.49871 87.484752,118.78882 C 88.01824,118.93776 89.611817,119.21723 91.026031,119.40989 C 97.173046,120.24729 106.57041,124.13729 113.13919,128.56353 C 116.89842,131.09662 123.00937,136.89854 126.02496,140.79768 C 140.73086,159.81232 141.82659,186.55266 128.72354,206.65451 C 125.37936,211.78496 117.54853,219.89731 112.94511,223.00021 C 108.06787,226.28767 100.69051,229.60241 95.088228,231.02355 C 88.930367,232.58562 88.825448,232.58439 87.098549,230.92992 C 86.321688,230.18564 84.515547,229.27306 83.084897,228.90195 C 79.648806,228.01064 75.96931,228.90122 73.599967,231.19767 C 72.681927,232.08749 71.814052,232.69873 71.67135,232.55604 L 71.671335,232.55603 z"
       id="path2415" />
    <path
       style="fill:#ffff00;fill-opacity:1;fill-rule:evenodd;stroke:#000000;stroke-width:0.51425952;stroke-linecap:round;stroke-linejoin:round;stroke-miterlimit:4;stroke-dasharray:none;stroke-dashoffset:0;stroke-opacity:1"
       d="M 74.705168,212.24545 C 56.747411,208.9614 43.971287,193.77547 43.971287,175.7146 C 43.971287,161.6094 51.65543,149.04735 64.137891,142.74622 C 68.088412,140.75201 68.346663,140.79815 67.926904,143.42319 C 67.736576,144.61338 67.354178,147.97969 67.07711,150.90387 L 66.573342,156.22058 L 63.843128,158.99478 C 58.549063,164.37409 56.018063,172.21358 57.25207,179.40976 C 57.600573,181.44211 58.592004,184.53958 59.455234,186.29306 C 61.039184,189.51051 65.004439,194.04608 67.545842,195.54732 C 68.789574,196.282 69.076129,197.07341 70.480284,203.65145 L 72.036408,210.94138 L 79.064787,211.08428 L 86.093202,211.22723 L 86.6009,209.28438 C 86.880143,208.21583 87.591117,205.25726 88.180839,202.70979 L 89.253054,198.07801 L 92.173637,196.54889 C 104.4418,190.12569 108.26451,173.65679 100.20587,161.94462 C 98.547076,159.53379 94.220564,155.52339 92.749479,155.03302 C 92.449846,154.93314 92.017127,153.00812 91.787886,150.75519 C 91.558644,148.50225 91.205692,145.21259 91.003563,143.44482 C 90.55483,139.52031 90.617004,139.50561 96.19583,142.21691 C 109.76893,148.81341 117.51039,160.97978 117.51039,175.7146 C 117.51039,192.34004 107.19387,206.1508 91.026031,211.16931 C 86.984964,212.42365 78.675585,212.97156 74.705178,212.24546 L 74.705168,212.24545 z"
       id="path2417" />
    <path
       style="fill:#ffff00;fill-opacity:1;fill-rule:evenodd;stroke:#000000;stroke-width:0.51425952;stroke-linecap:round;stroke-linejoin:round;stroke-miterlimit:4;stroke-dasharray:none;stroke-dashoffset:0;stroke-opacity:1"
       d="M 65.055988,192.63626 C 60.69532,188.27558 58.427564,183.79483 57.62391,177.95156 C 56.837124,172.23087 59.406987,164.81339 63.917356,159.78668 L 66.442581,156.97238 L 66.771182,170.329 C 66.960219,178.01371 67.422384,185.65106 67.85951,188.31396 C 68.760559,193.80295 68.824708,195.25646 68.165972,195.25646 C 67.896603,195.25646 66.497103,194.07736 65.055988,192.63625 L 65.055988,192.63626 z"
       id="path2419" />
    <path
       style="fill:#000000;fill-opacity:1;fill-rule:evenodd;stroke:#000000;stroke-width:0.51425951999999997;stroke-linecap:round;stroke-linejoin:round;stroke-miterlimit:4;stroke-dasharray:none;stroke-dashoffset:0;stroke-opacity:1"
       d="M 89.455318,196.17415 C 91.154446,188.42811 92.289643,176.01179 92.301518,165.04372 C 92.307118,159.88184 92.485242,155.65998 92.697374,155.6618 C 93.688404,155.67033 98.339438,160.31172 100.12443,163.07345 C 102.6737,167.01768 103.6758,170.52403 103.69081,175.55239 C 103.71788,184.6198 99.126189,192.34709 91.39748,196.24069 L 89.197622,197.34894 L 89.455318,196.17415 z"
       id="path2421" />
    <path
       style="fill:#000000;fill-opacity:1;fill-rule:evenodd;stroke:#000000;stroke-width:0.51425952;stroke-linecap:round;stroke-linejoin:round;stroke-miterlimit:4;stroke-dasharray:none;stroke-dashoffset:0;stroke-opacity:1"
       d="M 73.798338,208.86551 C 73.798338,208.7137 73.229942,205.99456 72.535234,202.82294 C 67.470457,179.70012 67.447969,153.26356 72.472402,128.91699 C 73.202054,125.38145 74.217902,120.86883 74.729883,118.88893 L 75.660739,115.28911 L 79.589501,115.13938 L 83.518233,114.98964 L 84.03836,116.93928 C 84.324448,118.01159 85.256003,122.36018 86.108501,126.60282 C 91.659094,154.22662 91.490222,179.33076 85.585325,204.38457 L 84.464167,209.14147 L 79.13127,209.14147 C 76.19815,209.14147 73.798338,209.01728 73.798338,208.86549 L 73.798338,208.86551 z"
       id="path2423" />
    <path
       style="fill:#ffff00;fill-opacity:1;fill-rule:evenodd;stroke:#000000;stroke-width:0.51425951999999997;stroke-linecap:round;stroke-linejoin:round;stroke-miterlimit:4;stroke-dasharray:none;stroke-dashoffset:0;stroke-opacity:1"
       d="M 77.141024,244.41369 C 73.588582,242.83479 71.850549,239.13911 73.037177,235.68745 C 74.246042,232.17109 76.555401,230.63113 80.573074,230.66225 C 85.109727,230.6974 88.197604,233.60368 88.197604,237.83841 C 88.197604,243.05915 82.165098,246.64665 77.141024,244.41368 L 77.141024,244.41369 z"
       id="path2425" />
    <path
       style="fill:#ffff00;fill-opacity:1;fill-rule:evenodd;stroke:#000000;stroke-width:0.51425952;stroke-linecap:round;stroke-linejoin:round;stroke-miterlimit:4;stroke-dasharray:none;stroke-dashoffset:0;stroke-opacity:1"
       d="M 89.248534,196.95992 C 89.260835,196.73012 89.486533,195.50074 89.750071,194.22794 C 90.883514,188.75372 91.864495,177.76413 92.137109,167.48645 C 92.298427,161.40533 92.62745,156.21767 92.868304,155.95832 C 93.630405,155.13766 99.69768,161.96461 101.54984,165.72688 C 105.76035,174.27964 103.37044,186.87859 96.406913,192.83912 C 94.156688,194.76521 89.213631,197.61073 89.248519,196.9599 L 89.248534,196.95992 z"
       id="path2427" />
    <path
       style="fill:#000000;fill-opacity:1;fill-rule:evenodd;stroke:#000000;stroke-width:0.51425951999999997;stroke-linecap:round;stroke-linejoin:round;stroke-miterlimit:4;stroke-dasharray:none;stroke-dashoffset:0;stroke-opacity:1"
       d="M 77.055714,243.56412 C 73.405305,241.75717 72.236619,237.58939 74.4566,234.29516 C 75.944482,232.08726 77.567114,231.27126 80.483711,231.26413 C 88.268823,231.24509 90.336635,240.87942 83.200092,243.92026 C 80.933755,244.88592 79.565928,244.80666 77.055709,243.56411 L 77.055714,243.56412 z"
       id="path2429" />
  </g>
</svg>
